<svg id="Ebene_1" data-name="Ebene 1" xmlns="http://www.w3.org/2000/svg" viewBox="0 0 274.25 162.57"><defs><style>.cls-1,.cls-3{fill:#fff;}.cls-2,.cls-4{fill:none;}.cls-2,.cls-3,.cls-4{stroke:red;}.cls-2,.cls-3,.cls-4,.cls-5{stroke-miterlimit:10;}.cls-2,.cls-3,.cls-5{stroke-width:0.14px;}.cls-4{stroke-width:0.14px;}.cls-5{fill:#fff12d;stroke:#272525;}</style></defs><rect class="cls-1" x="0.07" y="0.07" width="274.11" height="162.43" rx="39.69"/><rect class="cls-2" x="0.07" y="0.07" width="274.11" height="162.43" rx="39.69"/><circle class="cls-3" cx="241.59" cy="80.81" r="21.26"/><path class="cls-4" d="M37.26,35.29V14.85H43.6V35.29Zm9.28,0V31.47H56.78v3.82Z" transform="translate(-5.42 -3.93)"/><path class="cls-4" d="M67.27,35.71c-.38,0-.76,0-1.13-.07a10,10,0,0,1-3.43-1,7.39,7.39,0,0,1-2.27-1.87,7,7,0,0,1-1.25-2.46,10.54,10.54,0,0,1-.38-2.82,8.47,8.47,0,0,1,.6-3.2,7.26,7.26,0,0,1,1.79-2.61,8.65,8.65,0,0,1,3-1.78,12.94,12.94,0,0,1,4.2-.71v3.58a4.51,4.51,0,0,0-1.89.54,2.59,2.59,0,0,0-1,1.06,4.33,4.33,0,0,0-.4,1.42c0,.51-.08,1-.08,1.56s0,1.19,0,1.7a3.42,3.42,0,0,0,.32,1.39,2.56,2.56,0,0,0,1,1,5.91,5.91,0,0,0,2,.67v3.61Zm13.3-5.58a6.79,6.79,0,0,1-1.35,2.47,7.83,7.83,0,0,1-2.39,1.88,10.63,10.63,0,0,1-3.48,1.07q-.48.06-1,.09c-.32,0-.65,0-1,.08V32.11a4.18,4.18,0,0,0,1.88-.57,2.72,2.72,0,0,0,1-1.12,4.39,4.39,0,0,0,.4-1.46c0-.52.08-1,.08-1.54s0-1.14,0-1.65a3.7,3.7,0,0,0-.34-1.4,2.49,2.49,0,0,0-1-1.05,5.27,5.27,0,0,0-2-.6V19.17q4.83.2,7.21,2.37A7.39,7.39,0,0,1,81,27.3,9.65,9.65,0,0,1,80.57,30.13Z" transform="translate(-5.42 -3.93)"/><path class="cls-4" d="M96.44,34a16.65,16.65,0,0,1-3.1.29,11,11,0,0,1-3.89-.62A8.23,8.23,0,0,1,86.69,32,6.82,6.82,0,0,1,85,29.6a7.49,7.49,0,0,1-.55-2.85,6.76,6.76,0,0,1,.61-2.82,7.29,7.29,0,0,1,1.8-2.4,8.93,8.93,0,0,1,2.86-1.68,11,11,0,0,1,3.85-.63,7.65,7.65,0,0,1,2.9.62v3.44A3.57,3.57,0,0,0,95,22.9a5.31,5.31,0,0,0-1.93.33,4.35,4.35,0,0,0-1.43.89,4,4,0,0,0-.9,1.24,3.37,3.37,0,0,0-.32,1.41,3.52,3.52,0,0,0,.3,1.42,3.46,3.46,0,0,0,.88,1.21,4.26,4.26,0,0,0,1.41.84,5.17,5.17,0,0,0,1.91.32,3,3,0,0,0,1.59-.46ZM104.83,37A5.9,5.9,0,0,1,102.66,39a10.87,10.87,0,0,1-3.33,1.14,24.2,24.2,0,0,1-4.24.34,24.94,24.94,0,0,1-2.89-.16,12.49,12.49,0,0,1-2.63-.56,7.59,7.59,0,0,1-2.15-1.13A4.78,4.78,0,0,1,86,36.8a3.19,3.19,0,0,1-.36-1.25h6.45v0a2.43,2.43,0,0,0,1.38,1.14,6.9,6.9,0,0,0,2.09.29,4.51,4.51,0,0,0,3.12-.85,3.15,3.15,0,0,0,.9-2.42V19.66h6V33.83A6,6,0,0,1,104.83,37Z" transform="translate(-5.42 -3.93)"/><path class="cls-4" d="M119.86,34a16.75,16.75,0,0,1-3.11.29,10.89,10.89,0,0,1-3.88-.62A8.38,8.38,0,0,1,110.1,32a6.79,6.79,0,0,1-1.67-2.42,7.5,7.5,0,0,1-.56-2.85,6.77,6.77,0,0,1,.62-2.82,7.26,7.26,0,0,1,1.79-2.4,9,9,0,0,1,2.87-1.68,11,11,0,0,1,3.84-.63,7.74,7.74,0,0,1,2.91.62v3.44a3.61,3.61,0,0,0-1.51-.38,5.31,5.31,0,0,0-1.93.33,4.4,4.4,0,0,0-1.44.89,4.11,4.11,0,0,0-.89,1.24,3.22,3.22,0,0,0-.32,1.41,3.52,3.52,0,0,0,.3,1.42A3.56,3.56,0,0,0,115,29.4a4.42,4.42,0,0,0,1.42.84,5.13,5.13,0,0,0,1.91.32,3,3,0,0,0,1.59-.46ZM128.24,37A5.82,5.82,0,0,1,126.07,39a10.8,10.8,0,0,1-3.32,1.14,24.2,24.2,0,0,1-4.24.34,24.82,24.82,0,0,1-2.89-.16,12.49,12.49,0,0,1-2.63-.56,7.45,7.45,0,0,1-2.15-1.13,4.69,4.69,0,0,1-1.45-1.85,2.89,2.89,0,0,1-.36-1.25h6.45v0a2.44,2.44,0,0,0,1.37,1.14,6.94,6.94,0,0,0,2.09.29,4.56,4.56,0,0,0,3.13-.85,3.15,3.15,0,0,0,.9-2.42V19.66H129V33.83A5.86,5.86,0,0,1,128.24,37Z" transform="translate(-5.42 -3.93)"/><path class="cls-4" d="M144.93,38.17a5,5,0,0,1-1.77,1.18,9.4,9.4,0,0,1-2.35.59,25.3,25.3,0,0,1-2.87.16l-1.43,0h-1.44V36.54h1.72a6.39,6.39,0,0,0,2.46-.39,1.56,1.56,0,0,0,.88-1.68,5,5,0,0,0-.44-1.49c-.29-.71-.67-1.56-1.13-2.52s-1-2-1.54-3.09-1.09-2.15-1.61-3.15-1-1.91-1.43-2.72-.75-1.43-.94-1.84h6.69L146,36.22A4.52,4.52,0,0,1,144.93,38.17Zm2.49-4.72-2.59-6.76,2.35-7h6.49Z" transform="translate(-5.42 -3.93)"/><rect class="cls-5" x="25.22" y="41.56" width="187.94" height="104.31"/></svg>